<svg width="50" height="48" viewBox="0 0 50 48" fill="none" xmlns="http://www.w3.org/2000/svg">
<path d="M4.94109 5.25373H12.3527L17.2938 0H32.1171L37.0582 5.25373H44.4698C45.7803 5.25373 47.0371 5.80725 47.9637 6.79252C48.8903 7.77778 49.4109 9.11409 49.4109 10.5075V42.0299C49.4109 43.4232 48.8903 44.7595 47.9637 45.7448C47.0371 46.7301 45.7803 47.2836 44.4698 47.2836H4.94109C3.63063 47.2836 2.37385 46.7301 1.44721 45.7448C0.520577 44.7595 0 43.4232 0 42.0299V10.5075C0 9.11409 0.520577 7.77778 1.44721 6.79252C2.37385 5.80725 3.63063 5.25373 4.94109 5.25373ZM24.7055 13.1343C21.4293 13.1343 18.2873 14.5181 15.9708 16.9813C13.6542 19.4445 12.3527 22.7852 12.3527 26.2687C12.3527 29.7521 13.6542 33.0929 15.9708 35.556C18.2873 38.0192 21.4293 39.403 24.7055 39.403C27.9816 39.403 31.1236 38.0192 33.4401 35.556C35.7567 33.0929 37.0582 29.7521 37.0582 26.2687C37.0582 22.7852 35.7567 19.4445 33.4401 16.9813C31.1236 14.5181 27.9816 13.1343 24.7055 13.1343ZM24.7055 18.3881C26.6711 18.3881 28.5563 19.2183 29.9463 20.6962C31.3362 22.1741 32.1171 24.1786 32.1171 26.2687C32.1171 28.3587 31.3362 30.3632 29.9463 31.8411C28.5563 33.319 26.6711 34.1493 24.7055 34.1493C22.7398 34.1493 20.8546 33.319 19.4646 31.8411C18.0747 30.3632 17.2938 28.3587 17.2938 26.2687C17.2938 24.1786 18.0747 22.1741 19.4646 20.6962C20.8546 19.2183 22.7398 18.3881 24.7055 18.3881Z" fill="#0E1D4F"/>
</svg>
