<svg width="52" height="52" viewBox="0 0 52 52" fill="none" xmlns="http://www.w3.org/2000/svg">
<path d="M20.2217 30.0957H13.8203V21.2773H20.2217V30.0957ZM15.666 28.6162H18.3613V22.7422H15.666V28.6162ZM23.9131 25.042H25.876V26.5947H23.9131V33.3477H22.0381V20.0176H23.9131V25.042ZM36.9355 22.9326H38.7373V24.4707H36.9355V27.4736H35.0605V20.0176H36.9355V22.9326ZM33.2002 20.7939C33.1953 22.5469 32.6558 24.0142 31.5815 25.1958C30.5122 26.3774 28.9717 27.2344 26.96 27.7666L26.2129 26.2871C27.6777 25.9258 28.8276 25.3984 29.6626 24.7051C30.5024 24.0068 31.0005 23.2012 31.1567 22.2881H26.8721V20.7939H33.2002ZM36.9355 33.1865H28.2197V27.9717H36.9355V33.1865ZM30.0801 31.7217H35.0898V29.4805H30.0801V31.7217Z" fill="black"/>
<path d="M26 0C40.3 0 52 11.7 52 26C52 40.3 40.3 52 26 52C11.7 52 0 40.3 0 26C0 11.7 11.7 0 26 0ZM26 5.2C21.06 5.2 16.64 6.76 13.26 9.62L42.38 38.74C44.98 35.1 46.8 30.68 46.8 26C46.8 14.56 37.44 5.2 26 5.2ZM38.74 42.38L9.62 13.26C6.76 16.64 5.2 21.06 5.2 26C5.2 37.44 14.56 46.8 26 46.8C30.94 46.8 35.36 45.24 38.74 42.38Z" fill="black"/>
</svg>
